<svg xmlns="http://www.w3.org/2000/svg" viewBox="0 0 2500 1000"><defs><style>.cls-1{fill:#e5e5e5;}.cls-2{fill:#46c622;}</style></defs><g id="Layer_3" data-name="Layer 3"><path class="cls-1" d="M696.69,247.52h37.92V427.93H903.53V247.52h37.92V657.75H903.53V460.11H734.61V657.75H696.69Z"/><path class="cls-1" d="M1169.54,619.26c-13.79,29.3-37.35,44.24-71.82,44.24-65.5,0-97.1-46-97.1-140.77,0-93.65,31.6-140.19,95.38-140.19,35.62,0,58,12.07,73.54,41.37l.58-35.62h31.6V657.75h-31ZM1038,522.73c0,35,4.59,63.2,13.79,82.74,8.62,19,24.7,28.15,49.41,28.15,25.28,0,41.94-9.19,50.56-28.15,9.19-19.54,13.79-47.69,13.79-81,0-79.29-18.39-112-64.35-112C1056.93,412.42,1038,445.17,1038,522.73Z"/><path class="cls-1" d="M1441.3,634.77c-21.26,19.54-47.12,28.73-80.44,28.73-70.67,0-104.57-45.39-104.57-140.19,0-40.8,7.47-75.84,21.26-100,14.36-25.85,43.67-40.79,80.44-40.79,31.6,0,56.3,9.19,75.84,27.58l-17.24,24.13c-17.23-15.51-32.17-21.83-54-21.83-48.83,0-68.94,32.75-68.94,110.89,0,77.56,20.11,110.31,67.79,110.31,25.86,0,44.82-7.47,62.06-24.13Z"/><path class="cls-1" d="M1483.24,217.64h36.2V497.45l97.68-109.16h40.79L1552.19,502.62,1667.1,657.75h-41.94L1519.44,511.82V657.75h-36.2Z"/><path class="cls-1" d="M1706.74,610.64c19,16.66,35,23,58,23,32.17,0,49.41-15.51,49.41-44.24s-6.89-36.2-55.73-60.33c-44.24-22.4-59.18-41.94-59.18-77.56,0-42.52,28.15-68.95,73-68.95,28.72,0,51.13,8.62,70.09,27.58L1824,433.68c-16.09-15.52-29.3-21.26-48.84-21.26-26.43,0-41.37,13.21-41.37,36.77,0,24.71,8,33.9,50.56,55.16,28.73,14.36,36.2,19,45.39,28.15,13.22,12.64,19.54,30.45,19.54,53.43,0,49.42-30.45,77.57-84.46,77.57-32.75,0-55.73-8.62-76.42-28.15Z"/><path class="cls-2" d="M1873.93,247.52H1913l93.08,348.18,92.5-348.18h39.07L2019.29,660.63h-27Z"/><path class="cls-2" d="M2184.18,247.52h37.92V657.75h-37.92Z"/><path class="cls-2" d="M2304.83,247.52h37.92V657.75h-37.92Z"/><rect class="cls-1" x="211.33" y="732.21" width="354.95" height="23.74"/><path class="cls-1" d="M566.65,756.33H211v-24.5H566.65Zm-354.94-.75H565.9v-23H211.71Z"/><rect class="cls-1" x="263.03" y="771.4" width="251.56" height="23.74"/><path class="cls-1" d="M515,795.52H262.65V771H515Zm-251.56-.75H514.21v-23H263.4Z"/><rect class="cls-1" x="291.24" y="810.6" width="195.14" height="23.74"/><path class="cls-1" d="M486.75,834.72H290.86V810.23H486.75ZM291.61,834H486V811H291.61Z"/><path class="cls-1" d="M616.89,462.61q-12.4,20.22-12.42,48.84V627.17A87.51,87.51,0,0,1,597.55,662a89.26,89.26,0,0,1-47.39,47.6,87,87,0,0,1-35.07,7.15V696.27a64.17,64.17,0,0,0,26.69-5.6A71.78,71.78,0,0,0,578.4,654,64.26,64.26,0,0,0,584,627.29V511.7q0-26.11,9.31-47.24t27.31-32.31q-18-11.19-27.31-32.32T584,352.6V257.5a64.38,64.38,0,0,0-5.59-26.73,71.88,71.88,0,0,0-36.62-36.67,64.47,64.47,0,0,0-26.69-5.58V168a87.28,87.28,0,0,1,35.07,7.14A89.54,89.54,0,0,1,604.47,258v95q0,28.55,12.42,48.73c4.2,6.81,29.24,31.29,29.24,31.29S621,456,616.89,462.61Z"/><path class="cls-1" d="M515.09,720.25h-3.5V692.77h3.5a61,61,0,0,0,25.25-5.29,68.41,68.41,0,0,0,34.87-34.91,61.27,61.27,0,0,0,5.28-25.28V511.7c0-17.82,3.23-34.19,9.61-48.65,5.69-12.92,13.84-23.29,24.26-30.9-10.42-7.62-18.57-18-24.26-30.9-6.38-14.48-9.61-30.84-9.61-48.65V257.5a61.28,61.28,0,0,0-5.28-25.29,68.38,68.38,0,0,0-34.87-34.92A61.19,61.19,0,0,0,515.09,192h-3.5V164.53h3.5A91,91,0,0,1,551.55,172,93,93,0,0,1,608,258v95c0,18.28,4,34.06,11.9,46.89,3.26,5.29,21.82,23.9,28.7,30.63l2.65,2.59-2.74,2.5c-10,9.08-25.8,24.25-28.61,28.82-7.89,12.86-11.9,28.68-11.9,47V627.17a91.5,91.5,0,0,1-7.2,36.21,92.64,92.64,0,0,1-49.21,49.42A90.64,90.64,0,0,1,515.09,720.25Zm3.5-20.56v13.5a83.33,83.33,0,0,0,30.17-6.8,85.73,85.73,0,0,0,45.57-45.77A84.41,84.41,0,0,0,601,627.17V511.45c0-19.64,4.36-36.69,12.94-50.68h0c3.53-5.75,20.26-21.47,27.14-27.82-6.79-6.72-23.53-23.51-27.14-29.38C605.33,389.62,601,372.6,601,353V258a86.72,86.72,0,0,0-24.84-61.16,87.16,87.16,0,0,0-27.36-18.5,83.72,83.72,0,0,0-30.18-6.78v13.5a67.54,67.54,0,0,1,24.62,5.81,75.48,75.48,0,0,1,38.39,38.43,68.19,68.19,0,0,1,5.89,28.16v95.1c0,16.83,3,32.24,9,45.82,5.89,13.36,14.63,23.71,26,30.76l4.79,3-4.79,3c-11.33,7-20.06,17.38-26,30.75-6,13.57-9,29-9,45.83V627.29a68.18,68.18,0,0,1-5.89,28.15,75.51,75.51,0,0,1-38.38,38.43A67.76,67.76,0,0,1,518.59,699.69Z"/><path class="cls-1" d="M125.08,433s25-24.48,29.24-31.29q12.41-20.19,12.41-48.73V258A89,89,0,0,1,221,175.17,87.29,87.29,0,0,1,256.12,168v20.49a64.52,64.52,0,0,0-26.7,5.58,72,72,0,0,0-36.62,36.67,64.54,64.54,0,0,0-5.59,26.73v95.1q0,26.1-9.31,47.23t-27.31,32.32q18,11.18,27.31,32.31t9.31,47.24V627.29A64.41,64.41,0,0,0,192.8,654a71.88,71.88,0,0,0,36.62,36.67,64.22,64.22,0,0,0,26.7,5.6v20.48A87,87,0,0,1,221,709.6,89.29,89.29,0,0,1,173.66,662a87.51,87.51,0,0,1-6.93-34.83V511.45q0-28.63-12.41-48.84C150.23,456,125.08,433,125.08,433Z"/><path class="cls-1" d="M259.62,720.25h-3.5a90.64,90.64,0,0,1-36.47-7.45,92.64,92.64,0,0,1-49.21-49.42,91.51,91.51,0,0,1-7.21-36.21V511.45c0-18.33-4-34.15-11.9-47-2.8-4.57-18.64-19.74-28.61-28.82l-2.74-2.5,2.65-2.59c6.88-6.73,25.45-25.34,28.71-30.63,7.89-12.83,11.89-28.61,11.89-46.89V258A93.72,93.72,0,0,1,190.1,192a94.25,94.25,0,0,1,29.55-20,91.1,91.1,0,0,1,36.47-7.43h3.5V192h-3.5a61.11,61.11,0,0,0-25.26,5.28A68.41,68.41,0,0,0,196,232.21a61.28,61.28,0,0,0-5.28,25.29v95.1c0,17.81-3.23,34.17-9.6,48.65-5.69,12.91-13.84,23.28-24.26,30.9,10.42,7.61,18.56,18,24.26,30.9,6.37,14.46,9.6,30.83,9.6,48.65V627.29A61.27,61.27,0,0,0,196,652.57a68.51,68.51,0,0,0,34.87,34.91,61.05,61.05,0,0,0,25.26,5.29h3.5ZM130.16,433c6.87,6.35,23.6,22.07,27.14,27.82,8.58,14,12.93,31,12.93,50.68V627.17a84.67,84.67,0,0,0,6.64,33.46,85.85,85.85,0,0,0,45.57,45.76,83.39,83.39,0,0,0,30.18,6.8v-13.5A67.47,67.47,0,0,1,228,693.86a75.34,75.34,0,0,1-38.38-38.42,68.19,68.19,0,0,1-5.9-28.15V511.7c0-16.84-3-32.26-9-45.83-5.89-13.37-14.62-23.71-25.95-30.75l-4.79-3,4.78-3c11.34-7.05,20.07-17.4,26-30.76,6-13.58,9-29,9-45.82V257.5a68.2,68.2,0,0,1,5.9-28.16A75.41,75.41,0,0,1,228,190.91a67.54,67.54,0,0,1,24.63-5.81V171.6a83.67,83.67,0,0,0-30.18,6.78,87.21,87.21,0,0,0-27.37,18.5A86.72,86.72,0,0,0,170.23,258v95c0,19.59-4.35,36.61-12.93,50.56C153.68,409.44,136.94,426.23,130.16,433Z"/><path class="cls-2" d="M267.27,247.76h26.47L469.9,559.54V249.38h34V637.89H480.7L301.31,318V635.19h-34Z"/><path class="cls-2" d="M508.44,642.39H478.07L305.81,335.23V639.69h-43V243.26h33.6l169,299.17V244.88h43Zm-25.1-9h16.1V253.88h-25V576.65L291.12,252.26H271.77V630.69h25V300.78Z"/><path class="cls-1" d="M1039.4,769.17h8.72L1070.87,843l22.75-73.84h8.71l9.36,92.82h-10.4l-6.37-70.07L1073.34,862h-4.94l-21.71-70.07L1040.45,862H1030Z"/><path class="cls-1" d="M1163.55,854.06c-3,6.24-8.58,9.36-16.25,9.36-15,0-22.36-10.66-22.36-32.24s7.41-32.24,22.23-32.24c7.8,0,12.87,2.6,16.38,8.32l.4-6.89h9V862h-9ZM1136,831.18c0,7.54.91,13.52,2.86,17.81,1.69,4,5.07,6,10.14,6s8.58-2,10.4-6,2.86-10.14,2.86-17.55c0-17.16-3.77-24.05-13.26-24.05C1139.76,807.39,1136,814.28,1136,831.18Z"/><path class="cls-1" d="M1184.48,800.37h11.31l12.87,48.75,13.26-48.75h11.19l-21.59,67.08c-4,12.61-5.46,16-7.8,19.5a16.16,16.16,0,0,1-14.17,7.41,20.35,20.35,0,0,1-9.49-2.21l2.21-8.06a11.82,11.82,0,0,0,6.76,2.08c3.9,0,6.11-1.95,8.58-7.41a106.48,106.48,0,0,0,3.51-10.27l2.34-6.89Z"/><path class="cls-1" d="M1266.25,856l24.7-36.92c6.5-9.88,10.27-20.15,10.27-28.21,0-8.71-4.81-13.78-13-13.78-5.72,0-10.66,1.82-16.51,6.11l-4.29-7.8a36.39,36.39,0,0,1,22.36-7.41c13.91,0,22.36,8.58,22.36,22.62,0,9.75-4.42,21.71-12.09,32.89l-20.15,29.38h34.32V862h-48Z"/><path class="cls-1" d="M1355,781.78l-17.29,9.1-3.64-7.93L1360.24,769h5.59v93H1355Z"/><path class="cls-1" d="M1398.2,849.9c4.81,3.77,8.45,5.07,13.65,5.07,7.15,0,10.66-3,10.66-9a9.36,9.36,0,0,0-2.21-6.5c-2-2.08-2.34-2.34-10.27-6.11-10.4-5.07-14-9.75-14-18.07,0-10.14,6.76-16.38,17.81-16.38,6.89,0,12.48,1.95,17.16,6.24l-4.94,6.89c-3.9-3.38-7-4.68-11.44-4.68-5.59,0-8.58,2.6-8.58,7.28,0,5.2,1.82,7.15,10.92,11.44,7.28,3.51,8.84,4.42,11,6.5,3.12,2.86,4.68,7.15,4.68,12.61,0,11.83-7.28,18.2-20.54,18.2-8.06,0-13.78-1.95-18.85-6.24Z"/><path class="cls-1" d="M1441.75,809v-8.58h8.71l.65-18.72,9.49-1.82v20.54h14V809h-14v32.76c0,9.75,1.56,12.22,7.54,12.22a26.71,26.71,0,0,0,5.07-.52l1.43,8.06a31.15,31.15,0,0,1-9.36,1.3c-6.76,0-10.92-1.95-13-6-1.69-3.25-2.21-7-2.21-15.86V809Z"/></g></svg>