<?xml version="1.0" encoding="UTF-8"?><svg xmlns="http://www.w3.org/2000/svg" viewBox="0 0 1000 1000"><defs><style>.f{fill:#46c622;}.g{fill:#e5e5e5;}</style></defs><g id="a"/><g id="b"/><g id="c"><g><g><rect class="g" x="325.73" y="731.02" width="354.95" height="23.74"/><path class="g" d="M681.05,755.14H325.36v-24.49h355.7v24.49Zm-354.95-.75h354.2v-22.99H326.11v22.99Z"/></g><g><rect class="g" x="377.43" y="770.21" width="251.56" height="23.74"/><path class="g" d="M629.36,794.33h-252.31v-24.5h252.31v24.5Zm-251.56-.75h250.81v-23h-250.81v23Z"/></g><g><rect class="g" x="405.64" y="809.41" width="195.14" height="23.74"/><path class="g" d="M601.15,833.53h-195.89v-24.49h195.89v24.49Zm-195.14-.75h194.39v-22.99h-194.39v22.99Z"/></g><g><path class="g" d="M731.29,461.42c-8.27,13.48-12.41,29.76-12.41,48.84v115.72c0,12.43-2.31,24.05-6.93,34.84-4.62,10.79-10.93,20.22-18.93,28.31-8,8.09-17.49,14.51-28.46,19.28-10.96,4.77-22.66,7.16-35.07,7.16v-20.48c9.52,0,18.42-1.87,26.69-5.6,8.28-3.72,15.52-8.7,21.73-14.92,6.21-6.22,11.17-13.47,14.9-21.75,3.72-8.28,5.59-17.19,5.59-26.71v-115.59c0-17.41,3.1-33.16,9.31-47.24,6.21-14.08,15.31-24.86,27.31-32.31-12-7.46-21.1-18.23-27.31-32.32-6.21-14.09-9.31-29.83-9.31-47.23v-95.1c0-9.53-1.86-18.45-5.59-26.73-3.72-8.27-8.69-15.53-14.9-21.75-6.21-6.21-13.44-11.18-21.73-14.92-8.27-3.71-17.17-5.59-26.69-5.59v-20.48c12.41,0,24.11,2.39,35.07,7.14,10.97,4.76,20.45,11.17,28.46,19.24,8,8.07,14.32,17.59,18.93,28.55,4.62,10.96,6.93,22.66,6.93,35.07v94.97c0,19.03,4.14,35.27,12.41,48.73,4.2,6.81,29.24,31.3,29.24,31.3,0,0-25.15,22.92-29.24,29.57Z"/><path class="g" d="M629.49,719.06h-3.5v-27.48h3.5c8.96,0,17.46-1.78,25.25-5.29,7.84-3.53,14.8-8.3,20.69-14.2,5.88-5.88,10.65-12.85,14.18-20.72,3.5-7.79,5.28-16.29,5.28-25.28v-115.59c0-17.82,3.23-34.19,9.61-48.65,5.69-12.91,13.84-23.28,24.26-30.9-10.42-7.62-18.57-17.99-24.26-30.9-6.38-14.48-9.61-30.84-9.61-48.65v-95.1c0-8.99-1.78-17.5-5.28-25.29-3.54-7.85-8.31-14.82-14.18-20.72-5.89-5.89-12.85-10.66-20.69-14.2-7.8-3.5-16.29-5.28-25.25-5.28h-3.5v-27.48h3.5c12.83,0,25.1,2.5,36.46,7.43,11.33,4.92,21.28,11.65,29.55,19.99,8.28,8.35,14.9,18.33,19.67,29.66,4.78,11.34,7.2,23.6,7.2,36.43v94.97c0,18.28,4,34.06,11.9,46.89,3.26,5.29,21.82,23.9,28.7,30.63l2.65,2.59-2.74,2.5c-9.96,9.08-25.81,24.25-28.61,28.82-7.89,12.86-11.9,28.68-11.9,47.01v115.72c0,12.86-2.42,25.04-7.21,36.21-4.77,11.13-11.38,21.02-19.66,29.39-8.27,8.36-18.21,15.1-29.55,20.03-11.35,4.94-23.62,7.45-36.47,7.45Zm3.5-20.57v13.5c10.61-.41,20.74-2.69,30.17-6.8,10.52-4.58,19.73-10.81,27.37-18.53,7.66-7.74,13.78-16.9,18.2-27.23,4.41-10.3,6.64-21.56,6.64-33.46v-115.72c0-19.64,4.35-36.69,12.93-50.67h0c3.54-5.76,20.26-21.47,27.14-27.83-6.79-6.71-23.52-23.51-27.14-29.37-8.58-13.96-12.93-30.97-12.93-50.56v-94.97c0-11.89-2.24-23.24-6.65-33.71-4.42-10.5-10.54-19.73-18.19-27.45-7.64-7.71-16.85-13.93-27.36-18.5-9.44-4.1-19.58-6.37-30.18-6.78v13.5c8.67,.41,16.94,2.36,24.62,5.81,8.62,3.89,16.28,9.14,22.77,15.63,6.48,6.5,11.73,14.17,15.61,22.79,3.91,8.7,5.9,18.18,5.9,28.17v95.1c0,16.83,3.03,32.24,9.01,45.82,5.89,13.36,14.62,23.71,25.96,30.75l4.78,2.97-4.79,2.97c-11.33,7.04-20.06,17.38-25.96,30.74-5.98,13.57-9.01,28.99-9.01,45.83v115.59c0,9.98-1.98,19.45-5.9,28.15-3.88,8.64-9.14,16.31-15.61,22.79-6.49,6.5-14.15,11.76-22.77,15.64-7.68,3.46-15.94,5.41-24.63,5.82Z"/></g><g><path class="g" d="M239.48,431.84s25.04-24.48,29.24-31.3c8.27-13.45,12.41-29.7,12.41-48.73v-94.97c0-12.41,2.31-24.11,6.93-35.07,4.62-10.96,10.93-20.48,18.93-28.55,8-8.07,17.49-14.48,28.46-19.24,10.96-4.75,22.66-7.14,35.07-7.14v20.48c-9.52,0-18.42,1.87-26.69,5.59-8.28,3.73-15.52,8.71-21.73,14.92-6.21,6.23-11.17,13.48-14.9,21.75-3.72,8.28-5.59,17.2-5.59,26.73v95.1c0,17.4-3.1,33.14-9.31,47.23-6.21,14.08-15.31,24.86-27.31,32.32,12,7.45,21.1,18.22,27.31,32.31,6.21,14.08,9.31,29.83,9.31,47.24v115.59c0,9.52,1.86,18.43,5.59,26.71,3.72,8.28,8.69,15.54,14.9,21.75,6.21,6.22,13.44,11.19,21.73,14.92,8.27,3.72,17.17,5.6,26.69,5.6v20.48c-12.41,0-24.11-2.39-35.07-7.16-10.97-4.77-20.45-11.19-28.46-19.28-8-8.09-14.32-17.53-18.93-28.31s-6.93-22.4-6.93-34.84v-115.72c0-19.09-4.14-35.36-12.41-48.84-4.08-6.65-29.24-29.57-29.24-29.57Z"/><path class="g" d="M374.01,719.06h-3.5c-12.85,0-25.12-2.51-36.47-7.45-11.34-4.93-21.28-11.67-29.55-20.03-8.28-8.37-14.9-18.26-19.66-29.39-4.78-11.17-7.21-23.36-7.21-36.21v-115.72c0-18.33-4-34.15-11.9-47.01-3.14-5.11-21.72-22.53-28.61-28.82l-2.74-2.5,2.65-2.59c6.88-6.73,25.45-25.34,28.7-30.63,7.89-12.83,11.89-28.61,11.89-46.89v-94.97c0-12.83,2.42-25.09,7.2-36.43,4.77-11.33,11.39-21.31,19.67-29.66,8.27-8.34,18.21-15.07,29.55-19.99,11.37-4.93,23.63-7.43,36.46-7.43h3.5v27.48h-3.5c-8.96,0-17.46,1.78-25.26,5.28-7.83,3.53-14.8,8.31-20.68,14.2-5.87,5.89-10.65,12.86-14.18,20.72-3.5,7.79-5.28,16.3-5.28,25.29v95.1c0,17.8-3.23,34.17-9.61,48.64-5.69,12.91-13.84,23.28-24.26,30.9,10.42,7.61,18.57,17.98,24.26,30.9,6.38,14.46,9.61,30.83,9.61,48.65v115.59c0,8.98,1.78,17.49,5.28,25.28,3.54,7.86,8.31,14.83,14.18,20.72,5.89,5.9,12.85,10.67,20.68,14.2,7.79,3.51,16.29,5.29,25.26,5.29h3.5v27.48ZM244.55,431.76c6.88,6.35,23.61,22.07,27.14,27.83,8.58,13.98,12.93,31.03,12.93,50.68v115.72c0,11.91,2.23,23.16,6.64,33.46,4.42,10.32,10.54,19.48,18.2,27.23,7.64,7.72,16.85,13.96,27.36,18.53,9.43,4.11,19.57,6.39,30.17,6.8v-13.5c-8.68-.41-16.95-2.37-24.63-5.82-8.61-3.87-16.27-9.13-22.77-15.64-6.48-6.49-11.73-14.15-15.61-22.79-3.91-8.7-5.9-18.17-5.9-28.15v-115.59c0-16.84-3.03-32.26-9.01-45.83-5.89-13.37-14.62-23.71-25.96-30.74l-4.79-2.97,4.78-2.97c11.33-7.05,20.07-17.39,25.96-30.76,5.98-13.58,9.01-29,9.01-45.82v-95.1c0-9.99,1.98-19.47,5.9-28.17,3.88-8.63,9.14-16.29,15.61-22.79,6.49-6.49,14.15-11.75,22.77-15.64,7.69-3.45,15.96-5.4,24.63-5.81v-13.5c-10.6,.41-20.73,2.69-30.18,6.78-10.51,4.56-19.72,10.79-27.36,18.5-7.65,7.71-13.77,16.95-18.19,27.45-4.41,10.48-6.65,21.82-6.65,33.71v94.97c0,19.6-4.35,36.61-12.93,50.56-3.62,5.87-20.35,22.66-27.14,29.38Z"/></g></g><g><path class="f" d="M381.66,246.57h26.48l176.15,311.78V248.19h34.04v388.51h-23.23l-179.39-319.88v317.18h-34.04V246.57Z"/><path class="f" d="M622.84,641.2h-30.37l-172.26-307.16v304.46h-43.04V242.07h33.6l169.03,299.17V243.69h43.04v397.51Zm-25.1-9h16.1V252.69h-25.04v322.77L405.52,251.07h-19.35v378.43h25.04V299.59l186.53,332.61Z"/></g></g><g id="d"/><g id="e"/></svg>